<svg width="130" height="35" viewBox="0 0 130 35" fill="none" xmlns="http://www.w3.org/2000/svg">
<path d="M45.5443 32.1579C45.5443 32.5227 45.5658 32.8848 45.6171 33.1739H44.9133L44.854 32.6389H44.8297C44.5924 32.9712 44.1394 33.2685 43.5354 33.2685C42.6779 33.2685 42.2438 32.6632 42.2438 32.0525C42.2438 31.0284 43.1498 30.4718 44.7812 30.4772V30.3881C44.7812 30.0395 44.6841 29.4126 43.8212 29.4126C43.4302 29.4126 43.0177 29.5369 42.7237 29.726L42.5458 29.2181C42.8963 28.9938 43.4006 28.8425 43.9372 28.8425C45.2288 28.8425 45.5416 29.726 45.5416 30.5772V32.1579H45.5443ZM44.8054 31.0095C43.9668 30.9933 43.015 31.1419 43.015 31.9661C43.015 32.4633 43.3466 32.6983 43.7376 32.6983C44.2877 32.6983 44.6355 32.3471 44.7596 31.9904C44.7866 31.912 44.8054 31.8229 44.8054 31.7472V31.0095Z" fill="#6D5A4C"/>
<path d="M47.572 27.7481C47.5828 28.0102 47.3886 28.2183 47.0839 28.2183C46.8143 28.2183 46.6201 28.0075 46.6201 27.7481C46.6201 27.4779 46.8224 27.2645 47.1001 27.2645C47.3886 27.2645 47.572 27.4779 47.572 27.7481ZM46.7145 33.1739V28.937H47.483V33.1739H46.7145Z" fill="#6D5A4C"/>
<path d="M48.8582 30.2584C48.8582 29.7585 48.8501 29.3315 48.8232 28.937H49.4946L49.5189 29.7693H49.5539C49.7454 29.1991 50.2092 28.8398 50.7242 28.8398C50.8132 28.8398 50.8752 28.8506 50.9453 28.8695V29.5936C50.8671 29.5747 50.7862 29.5639 50.6838 29.5639C50.1391 29.5639 49.7562 29.98 49.6537 30.5529C49.6348 30.6583 49.6213 30.7853 49.6213 30.9177V33.1739H48.8609V30.2584H48.8582Z" fill="#6D5A4C"/>
<path d="M51.8055 30.3205C51.8055 29.7774 51.7866 29.3396 51.7704 28.937H52.458L52.4985 29.6666H52.512C52.8275 29.1478 53.3236 28.8425 54.0166 28.8425C55.0386 28.8425 55.8044 29.7098 55.8044 30.9987C55.8044 32.52 54.8795 33.2739 53.8818 33.2739C53.3236 33.2739 52.8383 33.028 52.5821 32.6065H52.5686V34.9086H51.8082V30.3205H51.8055ZM52.5659 31.45C52.5659 31.5635 52.5794 31.6688 52.5983 31.7634C52.7385 32.2984 53.1996 32.6659 53.7497 32.6659C54.5613 32.6659 55.0332 32.0012 55.0332 31.0284C55.0332 30.18 54.5856 29.4531 53.7766 29.4531C53.2508 29.4531 52.7601 29.8287 52.6117 30.407C52.5848 30.5042 52.5605 30.615 52.5605 30.7204V31.45H52.5659Z" fill="#6D5A4C"/>
<path d="M60.507 31.0203C60.507 32.5848 59.4258 33.2712 58.4038 33.2712C57.2578 33.2712 56.376 32.4308 56.376 31.0906C56.376 29.672 57.3009 28.8398 58.4712 28.8398C59.6873 28.8398 60.507 29.7233 60.507 31.0203ZM57.1553 31.0663C57.1553 31.9931 57.6865 32.6929 58.4334 32.6929C59.1696 32.6929 59.7197 32.0012 59.7197 31.0447C59.7197 30.3313 59.361 29.4234 58.4523 29.4234C57.5463 29.4207 57.1553 30.2584 57.1553 31.0663Z" fill="#6D5A4C"/>
<path d="M61.3484 30.2584C61.3484 29.7585 61.3376 29.3315 61.3106 28.937H61.9847L62.0117 29.7693H62.0441C62.2382 29.1991 62.702 28.8398 63.2143 28.8398C63.3033 28.8398 63.3626 28.8506 63.4327 28.8695V29.5936C63.3518 29.5747 63.2763 29.5639 63.1712 29.5639C62.6265 29.5639 62.2436 29.98 62.1411 30.5529C62.1223 30.6583 62.1061 30.7853 62.1061 30.9177V33.1739H61.3457V30.2584H61.3484Z" fill="#6D5A4C"/>
<path d="M65.5468 27.9211V28.937H66.6469V29.5234H65.5468V31.8093C65.5468 32.3335 65.6978 32.6308 66.1238 32.6308C66.3341 32.6308 66.4555 32.6119 66.5714 32.5767L66.6038 33.155C66.4582 33.2171 66.2236 33.2712 65.9243 33.2712C65.5683 33.2712 65.2798 33.1496 65.0965 32.9361C64.878 32.7091 64.7972 32.3335 64.7972 31.8337V29.5234H64.1419V28.937H64.7972V28.1588L65.5468 27.9211Z" fill="#6D5A4C"/>
<path d="M73.0753 32.5605C73.0753 33.5306 72.8785 34.125 72.4713 34.4952C72.0588 34.8789 71.4655 35.0032 70.9316 35.0032C70.4247 35.0032 69.8665 34.8816 69.5241 34.6519L69.7155 34.0656C69.9987 34.2412 70.4328 34.4033 70.9586 34.4033C71.7433 34.4033 72.323 33.9899 72.323 32.9226V32.447H72.3014C72.0669 32.8415 71.6138 33.155 70.9586 33.155C69.9124 33.155 69.1573 32.266 69.1573 31.0906C69.1573 29.6531 70.093 28.8398 71.0611 28.8398C71.7945 28.8398 72.1963 29.2262 72.3823 29.5747H72.3985L72.4336 28.937H73.105C73.0861 29.2451 73.0726 29.5855 73.0726 30.1043V32.5605H73.0753ZM72.3122 30.6096C72.3122 30.4772 72.3014 30.361 72.2664 30.2584C72.1262 29.8125 71.7514 29.445 71.1932 29.445C70.4571 29.445 69.9339 30.0692 69.9339 31.0447C69.9339 31.8796 70.3492 32.5686 71.1824 32.5686C71.6543 32.5686 72.0857 32.2714 72.2475 31.785C72.2934 31.6526 72.3122 31.5067 72.3122 31.3716V30.6096Z" fill="#6D5A4C"/>
<path d="M74.2887 30.2584C74.2887 29.7585 74.2779 29.3315 74.2537 28.937H74.9224L74.9521 29.7693H74.9871C75.1813 29.1991 75.6397 28.8398 76.1574 28.8398C76.241 28.8398 76.303 28.8506 76.3731 28.8695V29.5936C76.2949 29.5747 76.2194 29.5639 76.1115 29.5639C75.5696 29.5639 75.1867 29.98 75.0842 30.5529C75.0626 30.6583 75.0464 30.7853 75.0464 30.9177V33.1739H74.2887V30.2584Z" fill="#6D5A4C"/>
<path d="M80.9275 31.0203C80.9275 32.5848 79.8435 33.2712 78.8243 33.2712C77.6782 33.2712 76.7992 32.4308 76.7992 31.0906C76.7992 29.672 77.7268 28.8398 78.8944 28.8398C80.1051 28.8398 80.9275 29.7233 80.9275 31.0203ZM77.5758 31.0663C77.5758 31.9931 78.1097 32.6929 78.8593 32.6929C79.5927 32.6929 80.1401 32.0012 80.1401 31.0447C80.1401 30.3313 79.7842 29.4234 78.8755 29.4234C77.9668 29.4207 77.5758 30.2584 77.5758 31.0663Z" fill="#6D5A4C"/>
<path d="M85.2715 32.0174C85.2715 32.4551 85.2796 32.8415 85.3066 33.1739H84.6244L84.5812 32.4822H84.565C84.3655 32.8226 83.9206 33.2712 83.1683 33.2712C82.5022 33.2712 81.7095 32.9037 81.7095 31.4148V28.937H82.478V31.2824C82.478 32.0904 82.7233 32.6308 83.419 32.6308C83.9368 32.6308 84.2954 32.2714 84.4329 31.9282C84.4815 31.8175 84.503 31.6769 84.503 31.5337V28.937H85.2742V32.0174H85.2715Z" fill="#6D5A4C"/>
<path d="M86.4525 30.3205C86.4525 29.7774 86.4337 29.3396 86.4148 28.937H87.1078L87.1401 29.6666H87.1563C87.4745 29.1478 87.9734 28.8425 88.661 28.8425C89.6829 28.8425 90.4514 29.7098 90.4514 30.9987C90.4514 32.52 89.5238 33.2739 88.5315 33.2739C87.9734 33.2739 87.4853 33.028 87.2291 32.6065H87.213V34.9086H86.4525V30.3205ZM87.2103 31.45C87.2103 31.5635 87.2264 31.6688 87.2453 31.7634C87.3855 32.2984 87.8466 32.6659 88.394 32.6659C89.2083 32.6659 89.6802 32.0012 89.6802 31.0284C89.6802 30.18 89.2326 29.4531 88.421 29.4531C87.8979 29.4531 87.4098 29.8287 87.2615 30.407C87.2372 30.5042 87.2103 30.615 87.2103 30.7204V31.45Z" fill="#6D5A4C"/>
<path d="M129.602 10.5332V10.5278C128.817 11.1033 127.978 11.6113 127.099 12.0436H127.105C126.959 12.1112 126.905 12.2814 126.905 12.4084V23.5545H130.001V10.8088C130.001 10.1657 129.602 10.5332 129.602 10.5332Z" fill="#6D5A4C"/>
<path d="M53.7308 17.8964L53.6418 18.0423C52.3124 20.2175 50.8321 21.1524 48.7774 21.1551C45.8948 21.1497 43.8374 19.1745 43.832 16.4346C43.8374 13.6758 45.8948 11.6897 48.7774 11.6843C50.6999 11.6897 52.1803 12.5598 53.2481 14.3189L53.3344 14.4621L55.9311 12.7895L55.8259 12.649C54.0678 10.2306 51.6788 8.98766 48.7747 8.99306C44.1205 9.00117 40.7176 12.1248 40.7068 16.4346C40.7176 20.7309 44.1232 23.841 48.7747 23.8491C48.7774 23.8491 48.78 23.8491 48.7854 23.8491C51.9349 23.8491 54.4831 22.4062 56.1145 19.6987L56.1927 19.5636L53.7308 17.8964Z" fill="#6D5A4C"/>
<path d="M68.8661 9.28212V14.4431H68.8418H61.715H61.6881V14.4215L61.6908 9.28212H58.5952V23.5113H61.6881V17.1154H68.8661V23.5113H71.932V9.28212H68.8661Z" fill="#6D5A4C"/>
<path d="M90.4272 23.2708L83.206 9.28482H80.9895L73.7171 23.5113H76.9205L78.7164 20.0067L78.7218 19.9959L78.7272 19.9986H85.4953L85.498 20.0094L87.3424 23.514H90.5512L90.4272 23.2708ZM82.0924 13.419L82.1032 13.4406L84.1039 17.2695L84.1201 17.3046H80.0862L80.1051 17.2695L82.0816 13.4406L82.0924 13.419Z" fill="#6D5A4C"/>
<path d="M102.569 9.28482V18.0639L102.529 18.0233L94.1834 9.28482H92.3282V23.5058H95.3941V14.7295L95.4318 14.77L103.804 23.5058H105.638V9.28482H102.569Z" fill="#6D5A4C"/>
<path d="M116.677 18.2449H120.59L120.593 18.2692V19.2014L120.585 19.2069C119.563 20.5228 118.258 21.1523 116.521 21.1523C113.641 21.1469 111.586 19.1717 111.578 16.4318C111.586 13.673 113.638 11.687 116.521 11.6843C118.446 11.687 119.927 12.557 120.994 14.3161L121.078 14.4593L123.672 12.7894L123.57 12.6489C121.814 10.2306 119.422 8.9876 116.518 8.9903C111.867 8.99841 108.461 12.122 108.459 16.4345C108.461 20.7308 111.87 23.8409 116.518 23.849C119.568 23.8544 122.046 22.5493 123.629 20.1039L123.656 20.0607V15.5753H116.677V18.2449Z" fill="#6D5A4C"/>
<path d="M5.03235 4.58321C5.68759 1.32451 9.59479 1.7055 9.59479 1.7055C14.1114 2.11352 18.1561 7.39337 20.3376 10.8331C23.7297 16.1805 26.0056 22.5277 26.1377 28.9181C26.1404 29.037 26.2294 29.0559 26.3157 29.01C26.4613 28.9073 26.6123 28.8046 26.7552 28.6965C26.9332 28.5641 27.1084 28.4236 27.2864 28.2804C27.4077 28.1778 27.5264 28.0751 27.6477 27.9724C27.7232 27.8967 27.7799 27.7724 27.7799 27.5995C27.5965 20.6903 25.4825 13.7568 21.1681 8.30127C19.0298 5.59919 15.1361 1.8325 11.2181 1.07592C11.2181 1.07592 6.86056 0.0815533 4.67102 3.82123L5.03235 4.58321Z" fill="url(#paint0_linear_15_4839)"/>
<path d="M0.0681661 17.4019C1.12249 25.6594 8.17109 32.039 16.7081 32.039C19.0055 32.039 21.1978 31.5769 23.1905 30.742C23.4332 30.6312 23.4224 30.5583 23.2929 30.5177C12.925 30.7204 3.80818 24.1976 0.159846 17.083C0.0546837 16.983 0.0412013 17.183 0.0681661 17.4019Z" fill="url(#paint1_linear_15_4839)"/>
<path d="M32.8951 10.8574C32.8762 10.7953 32.86 10.7331 32.8439 10.671C32.7549 10.3683 32.4286 9.52799 32.1886 9.00109C27.1111 -1.46946 13.9712 -2.28008 5.91681 3.86174L5.87636 3.89416C5.87636 3.89416 3.83513 5.36409 2.41948 7.35823C1.00382 9.35236 0.386329 11.2276 0.170611 12.3192C0.0115184 13.1109 -0.0181428 13.5136 0.00882195 13.7081C0.00882195 13.7135 0.00882195 13.7189 0.00882195 13.7243C0.00882195 13.8 0.0357868 13.8405 0.0789304 13.8594C0.176004 13.9216 0.42408 13.773 0.60744 13.6703C0.742264 13.5946 1.19797 13.3703 1.59705 13.1866C2.86979 12.6327 4.29892 12.1814 5.79277 11.8653C5.71457 11.7383 5.61211 11.6167 5.52582 11.4843C4.91642 10.5737 4.45262 9.51719 4.18837 8.50661C3.13674 9.19023 2.12286 10.009 1.18449 10.9682C5.25078 1.71359 23.6192 -4.46606 32.7387 11.0493C32.7387 11.0466 32.7387 11.0466 32.7387 11.0466C32.825 11.1925 32.9221 11.1952 32.9221 11.0709C32.9301 11.0195 32.9086 10.9331 32.8951 10.8574Z" fill="url(#paint2_linear_15_4839)"/>
<path d="M15.2009 16.1211C12.4451 14.5377 9.54365 12.8894 7.40534 10.4927C5.93306 8.84439 4.72773 6.56654 5.06479 4.34813C5.29399 3.4024 6.1326 2.3594 7.29478 1.94328C7.29478 1.94328 7.29209 1.94328 7.28939 1.94328C6.67459 2.13243 6.0544 2.42695 5.43421 2.84037C5.33983 2.92684 5.24815 3.01871 5.15378 3.10788C3.21231 5.53164 3.81363 8.91194 5.52319 11.4789C7.55095 14.5269 11.0456 16.983 14.1789 18.7583C17.5225 20.6525 21.1385 22.1008 24.8731 23.0006C26.6285 23.4248 28.206 23.5167 30.0099 23.6356C30.2742 23.6518 30.5438 23.6626 30.8108 23.6707C31.0723 23.6734 31.2638 23.5491 31.369 23.3843C31.4445 23.2492 31.5874 22.9762 31.5874 22.9762C31.6413 22.8736 31.9703 22.1845 32.0727 21.9657C26.0812 21.7036 20.3215 19.069 15.2009 16.1211Z" fill="url(#paint3_linear_15_4839)"/>
<path d="M33.4695 15.0916C33.4506 14.7268 33.1756 14.081 32.6633 13.4838C26.9818 7.13666 14.8018 2.889 5.58252 7.6987C6.02205 8.72819 6.67729 9.68742 7.39725 10.4926C7.69926 10.8304 8.0498 11.1898 8.3572 11.4654C17.172 10.5062 27.8797 13.7405 31.1694 23.5842C31.2611 23.5302 31.3312 23.4572 31.3771 23.3707C32.7091 20.9632 33.4722 18.1963 33.4722 15.251C33.4749 15.197 33.4695 15.1456 33.4695 15.0916Z" fill="url(#paint4_linear_15_4839)"/>
<defs>
<linearGradient id="paint0_linear_15_4839" x1="4.67229" y1="14.9916" x2="27.7817" y2="14.9916" gradientUnits="userSpaceOnUse">
<stop offset="0.3846" stop-color="#DED5CF"/>
<stop offset="1" stop-color="#6D5A4C"/>
</linearGradient>
<linearGradient id="paint1_linear_15_4839" x1="22.2544" y1="24.5473" x2="-0.988774" y2="24.5473" gradientUnits="userSpaceOnUse">
<stop stop-color="#FFCB05"/>
<stop offset="0.6209" stop-color="#ED1B2F"/>
<stop offset="1" stop-color="#822A85"/>
</linearGradient>
<linearGradient id="paint2_linear_15_4839" x1="0.000732515" y1="6.93678" x2="32.9229" y2="6.93678" gradientUnits="userSpaceOnUse">
<stop stop-color="#FFCB05"/>
<stop offset="0.6209" stop-color="#ED1B2F"/>
<stop offset="1" stop-color="#822A85"/>
</linearGradient>
<linearGradient id="paint3_linear_15_4839" x1="3.94389" y1="12.8102" x2="32.0714" y2="12.8102" gradientUnits="userSpaceOnUse">
<stop offset="0.3846" stop-color="#DED5CF"/>
<stop offset="1" stop-color="#6D5A4C"/>
</linearGradient>
<linearGradient id="paint4_linear_15_4839" x1="0.0632286" y1="14.6059" x2="33.2628" y2="14.6059" gradientUnits="userSpaceOnUse">
<stop stop-color="#FFCB05"/>
<stop offset="0.6209" stop-color="#ED1B2F"/>
<stop offset="1" stop-color="#822A85"/>
</linearGradient>
</defs>
</svg>
